#!OML:ASF X:\für Bonn\!DataBase\2005_08_11_Bastian_Final\c3d\Bastian.ASF
:FULLY-SPECIFIED
:DEGREES
158
root -3.20609 17.2403 -17.6245 155.439 16.2787 -179.767
lowerback 11.1951 -3.31218 -2.34117
upperback 9.81035 -3.25628 -3.93483
thorax 3.946 -1.08297 -2.51698
lowerneck -2.40108 -0.934828 -14.517
upperneck -1.25462 -0.70779 15.7561
head 0.163198 -0.197899 7.21867
rclavicle -2.19595e-015 -4.21423e-014
rhumerus -70.601 12.1531 -98.4791
rradius 107.642
rwrist 13.617
rhand -19.1829 15.2678
rfingers 7.12502
rthumb 7.12864 -14.5921
lclavicle -2.19595e-015 -4.21423e-014
lhumerus -3.33126 -41.3379 83.8665
lradius 120.158
lwrist 27.2495
lhand -6.07844 -12.2856
lfingers 7.12502
lthumb 19.7569 16.7304
rfemur 8.36465 7.0278 26.6455
rtibia 37.2819
rfoot -193.212 -181.325
rtoes 5.28791
lfemur -3.26764 3.40857 -7.74267
ltibia 83.0086
lfoot 5.60996 6.81959
ltoes -50.2794
159
root -3.24809 17.241 -17.6123 156.078 16.1654 -179.493
lowerback 10.5942 -3.47259 -2.49089
upperback 9.59359 -3.55509 -3.64572
thorax 4.0579 -1.28897 -2.13148
lowerneck -2.4939 -0.769447 -14.2587
upperneck -1.28026 -0.473726 15.5999
head 0.133131 -0.0787132 7.12566
rclavicle -6.31514e-014 -3.81667e-014
rhumerus -69.7749 12.2586 -98.7158
rradius 107.62
rwrist 13.6398
rhand -18.9323 15.1383
rfingers 7.12502
rthumb 7.37053 -14.7133
lclavicle -6.31514e-014 -3.81667e-014
lhumerus -2.80159 -41.7436 83.5799
lradius 120.16
lwrist 27.3934
lhand -6.01024 -12.2804
lfingers 7.12502
lthumb 19.8225 16.7288
rfemur 7.5603 7.48747 26.88
rtibia 37.5804
rfoot -193.248 -181.774
rtoes 5.0966
lfemur -1.61289 2.79438 -8.06404
ltibia 81.3481
lfoot 4.78604 7.2203
ltoes -49.1138
160
root -3.29386 17.2372 -17.5957 156.691 16.0363 -179.224
lowerback 10.0787 -3.6164 -2.61403
upperback 9.37351 -3.82456 -3.36762
thorax 4.12407 -1.47409 -1.77531
lowerneck -2.64148 -0.64838 -14.0162
upperneck -1.25512 -0.298431 15.4595
head 0.136869 0.0135605 7.03983
rclavicle 4.98825e-014 -7.95139e-014
rhumerus -68.9794 12.3039 -98.9398
rradius 107.641
rwrist 13.7452
rhand -18.5711 14.9864
rfingers 7.12502
rthumb 7.71917 -14.8527
lclavicle 4.98825e-014 -7.95139e-014
lhumerus -2.22299 -42.1699 83.2927
lradius 120.089
lwrist 27.579
lhand -5.95436 -12.2587
lfingers 7.12502
lthumb 19.8762 16.7449
rfemur 6.74377 7.93398 27.0795
rtibia 37.8897
rfoot -193.249 -182.204
rtoes 4.83243
lfemur -0.0462887 2.24619 -8.35731
ltibia 79.6331
lfoot 3.86892 7.54075
ltoes -47.9149
161
root -3.34184 17.2366 -17.5762 157.307 15.8749 -179.014
lowerback 9.57797 -3.7401 -2.75611
upperback 9.14707 -4.06181 -3.12612
thorax 4.18019 -1.63963 -1.45191
lowerneck -2.79922 -0.556637 -13.806
upperneck -1.23631 -0.159159 15.3806
head 0.14704 0.0893552 6.97941
rclavicle -3.36443e-014 -1.98785e-014
rhumerus -68.1196 12.2993 -99.1965
rradius 107.567
rwrist 13.8746
rhand -18.194 14.9122
rfingers 7.12502
rthumb 8.08307 -14.9132
lclavicle -3.36443e-014 -1.98785e-014
lhumerus -1.62413 -42.5972 83.0082
lradius 119.977
lwrist 27.7515
lhand -5.87034 -12.1857
lfingers 7.12502
lthumb 19.957 16.8095
rfemur 5.8827 8.41579 27.1975
rtibia 38.2237
rfoot -193.242 -182.636
rtoes 4.59288
lfemur 1.44227 1.74116 -8.68919
ltibia 77.8064
lfoot 2.899 7.78401
ltoes -46.2856
162
root -3.39295 17.2298 -17.5522 157.897 15.662 -178.862
lowerback 9.15168 -3.86619 -2.95124
upperback 8.90746 -4.30299 -2.88944
thorax 4.19039 -1.8068 -1.10288
lowerneck -2.97897 -0.474098 -13.7113
upperneck -1.1907 -0.0301243 15.3602
head 0.170782 0.161312 6.95802
rclavicle -1.41174e-013 2.78299e-014
rhumerus -67.2677 12.3306 -99.4032
rradius 107.363
rwrist 14.0462
rhand -17.8468 14.9004
rfingers 7.12502
rthumb 8.41815 -14.9118
lclavicle -1.41174e-013 2.78299e-014
lhumerus -1.05285 -42.9391 82.8369
lradius 119.767
lwrist 27.961
lhand -5.70023 -12.1419
lfingers 7.12502
lthumb 20.1205 16.8362
rfemur 4.96744 8.90007 27.2271
rtibia 38.6344
rfoot -193.26 -183.086
rtoes 4.35414
lfemur 2.84879 1.30072 -9.03492
ltibia 75.9174
lfoot 1.91102 7.92242
ltoes -44.1711
163
root -3.44627 17.219 -17.5246 158.472 15.4358 -178.707
lowerback 8.76806 -3.97072 -3.08997
upperback 8.67548 -4.50497 -2.68588
thorax 4.18204 -1.94642 -0.821528
lowerneck -3.15146 -0.437079 -13.5667
upperneck -1.15232 0.0355561 15.329
head 0.200874 0.20163 6.92394
rclavicle -5.74736e-014 -3.26007e-014
rhumerus -66.3858 12.2855 -99.6637
rradius 107.128
rwrist 14.2609
rhand -17.541 14.9301
rfingers 7.12502
rthumb 8.71334 -14.8701
lclavicle -5.74736e-014 -3.26007e-014
lhumerus -0.523676 -43.2953 82.7159
lradius 119.461
lwrist 28.1324
lhand -5.49835 -12.1212
lfingers 7.12502
lthumb 20.3145 16.8364
rfemur 4.03569 9.42047 27.2502
rtibia 39.0843
rfoot -193.275 -183.556
rtoes 4.14938
lfemur 4.22324 0.893552 -9.34382
ltibia 73.9342
lfoot 0.937481 7.92311
ltoes -41.8381
164
root -3.50183 17.206 -17.4936 159.06 15.1891 -178.565
lowerback 8.39878 -4.06223 -3.21036
upperback 8.44302 -4.68463 -2.49457
thorax 4.16559 -2.0713 -0.565063
lowerneck -3.35908 -0.428808 -13.4507
upperneck -1.09772 0.065847 15.3317
head 0.247047 0.226415 6.9056
rclavicle 1.97542e-014 1.90833e-014
rhumerus -65.5131 12.2384 -99.8983
rradius 106.917
rwrist 14.4579
rhand -17.2426 14.9875
rfingers 7.12502
rthumb 9.00123 -14.8005
lclavicle 1.97542e-014 1.90833e-014
lhumerus -0.008208 -43.6159 82.6693
lradius 119.079
lwrist 28.3582
lhand -5.23449 -12.1195
lfingers 7.12502
lthumb 20.5681 16.8108
rfemur 3.0415 9.90951 27.2219
rtibia 39.5789
rfoot -193.284 -183.993
rtoes 3.87074
lfemur 5.53867 0.54281 -9.6247
ltibia 71.856
lfoot 0.0869943 7.75548
ltoes -39.7449
165
root -3.55969 17.1918 -17.4595 159.628 14.9386 -178.371
lowerback 8.117 -4.16003 -3.27226
upperback 8.20877 -4.87011 -2.2812
thorax 4.09818 -2.19432 -0.313331
lowerneck -3.55527 -0.432192 -13.4194
upperneck -1.06478 0.0833069 15.3704
head 0.287142 0.244607 6.91353
rclavicle -5.65542e-014 8.82604e-014
rhumerus -64.7218 12.2623 -100.105
rradius 106.787
rwrist 14.6391
rhand -17.0105 15.0305
rfingers 7.12502
rthumb 9.22522 -14.7477
lclavicle -5.65542e-014 8.82604e-014
lhumerus 0.548481 -43.8922 82.6003
lradius 118.668
lwrist 28.6374
lhand -4.99133 -12.0905
lfingers 7.12502
lthumb 20.8017 16.8144
rfemur 2.06247 10.3767 27.2286
rtibia 40.0893
rfoot -193.297 -184.432
rtoes 3.73617
lfemur 6.78609 0.1914 -9.81462
ltibia 69.6877
lfoot -0.605816 7.40577
ltoes -38.2253
